<?xml version="1.0" encoding="utf-8"?>
<!-- Generator: Adobe Illustrator 15.0.2, SVG Export Plug-In . SVG Version: 6.00 Build 0)  -->
<!DOCTYPE svg PUBLIC "-//W3C//DTD SVG 1.1//EN" "http://www.w3.org/Graphics/SVG/1.1/DTD/svg11.dtd">
<svg version="1.1" id="Calque_1" xmlns="http://www.w3.org/2000/svg" xmlns:xlink="http://www.w3.org/1999/xlink" x="0px" y="0px"
	 width="24px" height="24px" viewBox="0 0 24 24" enable-background="new 0 0 24 24" xml:space="preserve">
<g>
	<path fill="#FFFBFF" d="M11.999,4.978c-2.591,0-4.69,2.1-4.69,4.691c0,2.592,2.1,4.691,4.69,4.691c2.592,0,4.691-2.099,4.691-4.691
		C16.69,7.078,14.591,4.978,11.999,4.978z M12.228,13.384c-1.398,0-2.628-0.918-3.345-2.308h6.69
		C14.856,12.465,13.627,13.384,12.228,13.384z"/>
	<path fill="#FFFBFF" d="M14.83,14.969c-0.844,0.452-1.808,0.71-2.831,0.71c-1.022,0-1.986-0.257-2.83-0.71
		c-1.822,0.479-3.251,1.613-3.905,4.054h13.473C18.082,16.582,16.654,15.447,14.83,14.969z"/>
</g>
</svg>
