<?xml version="1.0" encoding="utf-8"?>
<!-- Generator: Adobe Illustrator 15.0.0, SVG Export Plug-In . SVG Version: 6.00 Build 0)  -->
<!DOCTYPE svg PUBLIC "-//W3C//DTD SVG 1.1//EN" "http://www.w3.org/Graphics/SVG/1.1/DTD/svg11.dtd">
<svg version="1.1" id="Calque_1" xmlns="http://www.w3.org/2000/svg" xmlns:xlink="http://www.w3.org/1999/xlink" x="0px" y="0px"
	 width="80px" height="24px" viewBox="0 0 80 24" enable-background="new 0 0 80 24" xml:space="preserve">
<g>
	
		<linearGradient id="SVGID_1_" gradientUnits="userSpaceOnUse" x1="462.5605" y1="473.0605" x2="462.5605" y2="450.0625" gradientTransform="matrix(1 0 0 1 -422.5605 -449.5605)">
		<stop  offset="0" style="stop-color:#EEEBE8"/>
		<stop  offset="1" style="stop-color:#E8C6B0"/>
	</linearGradient>
	<path fill="url(#SVGID_1_)" d="M76.966,23.5H3.035c-1.398,0-2.534-1.137-2.534-2.534V3.033c0-1.396,1.136-2.531,2.534-2.531h73.931
		c1.397,0,2.534,1.136,2.534,2.531v17.933C79.5,22.363,78.363,23.5,76.966,23.5L76.966,23.5z"/>
	<path fill="#2AEDFF" d="M76.965,0C78.643,0,80,1.357,80,3.034v17.931C80,22.643,78.643,24,76.965,24H3.035
		C1.359,24,0,22.643,0,20.965V3.034C0,1.357,1.359,0,3.035,0H76.965 M76.965,1H3.035C1.913,1,1,1.912,1,3.034v17.931
		C1,22.087,1.913,23,3.035,23h73.93C78.087,23,79,22.087,79,20.965V3.034C79,1.912,78.087,1,76.965,1L76.965,1z"/>
</g>
</svg>
