<?xml version="1.0" encoding="utf-8"?>
<!-- Generator: Adobe Illustrator 15.0.2, SVG Export Plug-In . SVG Version: 6.00 Build 0)  -->
<!DOCTYPE svg PUBLIC "-//W3C//DTD SVG 1.1//EN" "http://www.w3.org/Graphics/SVG/1.1/DTD/svg11.dtd">
<svg version="1.1" id="Calque_1" xmlns="http://www.w3.org/2000/svg" xmlns:xlink="http://www.w3.org/1999/xlink" x="0px" y="0px"
	 width="160px" height="34px" viewBox="-32 0 160 34" enable-background="new -32 0 160 34" xml:space="preserve">
<g>
	<path fill="#FFFBFF" d="M15.999,9.972c-2.591,0-4.69,2.101-4.69,4.689c0,2.593,2.1,4.69,4.69,4.69c2.592,0,4.69-2.101,4.69-4.69
		S18.591,9.972,15.999,9.972z M16.228,18.377c-1.398,0-2.628-0.919-3.345-2.308h6.69C18.855,17.458,17.627,18.377,16.228,18.377z"/>
	<path fill="#FFFBFF" d="M18.83,19.962c-0.844,0.452-1.809,0.711-2.831,0.711s-1.986-0.258-2.83-0.711
		c-1.822,0.479-3.251,1.613-3.905,4.056h13.472C22.082,21.575,20.654,20.439,18.83,19.962z"/>
</g>
<g>
	<path fill="#FFFBFF" d="M47.999,9.972c-2.591,0-4.69,2.101-4.69,4.689c0,2.593,2.1,4.69,4.69,4.69c2.592,0,4.69-2.101,4.69-4.69
		S50.591,9.972,47.999,9.972z M48.228,18.377c-1.398,0-2.628-0.919-3.345-2.308h6.69C50.855,17.458,49.627,18.377,48.228,18.377z"/>
	<path fill="#FFFBFF" d="M50.83,19.962c-0.844,0.452-1.809,0.711-2.831,0.711s-1.986-0.258-2.83-0.711
		c-1.822,0.479-3.251,1.613-3.905,4.056h13.472C54.082,21.575,52.654,20.439,50.83,19.962z"/>
</g>
<g>
	<path fill="#FFFBFF" d="M79.999,9.972c-2.591,0-4.69,2.101-4.69,4.689c0,2.593,2.102,4.69,4.69,4.69c2.592,0,4.69-2.101,4.69-4.69
		S82.591,9.972,79.999,9.972z M80.229,18.377c-1.397,0-2.629-0.919-3.346-2.308h6.689C82.855,17.458,81.627,18.377,80.229,18.377z"
		/>
	<path fill="#FFFBFF" d="M82.83,19.962c-0.844,0.452-1.809,0.711-2.831,0.711s-1.985-0.258-2.83-0.711
		c-1.821,0.479-3.251,1.613-3.905,4.056h13.473C86.082,21.575,84.654,20.439,82.83,19.962z"/>
</g>
<g>
	<rect x="68" y="24.993" fill="#2679E0" width="24" height="4"/>
</g>
<g>
	<rect x="100" y="24.993" fill="#2679E0" width="24" height="4"/>
</g>
<g>
	<path fill="#FFFBFF" d="M111.999,9.972c-2.591,0-4.69,2.101-4.69,4.689c0,2.593,2.102,4.69,4.69,4.69c2.592,0,4.69-2.101,4.69-4.69
		S114.591,9.972,111.999,9.972z M112.229,18.377c-1.397,0-2.629-0.919-3.346-2.308h6.689
		C114.855,17.458,113.627,18.377,112.229,18.377z"/>
	<path fill="#FFFBFF" d="M114.83,19.962c-0.844,0.452-1.809,0.711-2.831,0.711s-1.985-0.258-2.83-0.711
		c-1.821,0.479-3.251,1.613-3.905,4.056h13.473C118.082,21.575,116.654,20.439,114.83,19.962z"/>
</g>
<g>
	<path fill="#FFFBFF" d="M-16.001,9.972c-2.591,0-4.69,2.101-4.69,4.689c0,2.593,2.1,4.69,4.69,4.69c2.592,0,4.69-2.101,4.69-4.69
		S-13.409,9.972-16.001,9.972z M-15.772,18.377c-1.398,0-2.628-0.919-3.345-2.308h6.69C-13.145,17.458-14.373,18.377-15.772,18.377z
		"/>
	<path fill="#FFFBFF" d="M-13.17,19.962c-0.844,0.452-1.809,0.711-2.831,0.711s-1.986-0.258-2.83-0.711
		c-1.822,0.479-3.251,1.613-3.905,4.056h13.472C-9.918,21.575-11.346,20.439-13.17,19.962z"/>
</g>
</svg>
