<?xml version="1.0" encoding="utf-8"?>
<!-- Generator: Adobe Illustrator 15.0.2, SVG Export Plug-In . SVG Version: 6.00 Build 0)  -->
<!DOCTYPE svg PUBLIC "-//W3C//DTD SVG 1.1//EN" "http://www.w3.org/Graphics/SVG/1.1/DTD/svg11.dtd">
<svg version="1.1" id="Calque_1" xmlns="http://www.w3.org/2000/svg" xmlns:xlink="http://www.w3.org/1999/xlink" x="0px" y="0px"
	 width="80px" height="24px" viewBox="0 0 80 24" enable-background="new 0 0 80 24" xml:space="preserve">
<path fill="#C3A6A6" d="M80,22c0,1.1-0.898,2-2,2H2c-1.1,0-2-0.9-2-2V3c0-1.1,0.9-2,2-2h76c1.102,0,2,0.9,2,2V22z"/>
<path fill="#DFFFEF" d="M80,21c0,1.1-0.898,2-2,2H2c-1.1,0-2-0.9-2-2V2c0-1.1,0.9-2,2-2h76c1.102,0,2,0.9,2,2V21z"/>
</svg>
