<?xml version="1.0" encoding="utf-8"?>
<!-- Generator: Adobe Illustrator 15.0.0, SVG Export Plug-In . SVG Version: 6.00 Build 0)  -->
<!DOCTYPE svg PUBLIC "-//W3C//DTD SVG 1.1//EN" "http://www.w3.org/Graphics/SVG/1.1/DTD/svg11.dtd">
<svg version="1.1" id="Calque_1" xmlns="http://www.w3.org/2000/svg" xmlns:xlink="http://www.w3.org/1999/xlink" x="0px" y="0px"
	 width="80px" height="24px" viewBox="0 0 80 24" enable-background="new 0 0 80 24" xml:space="preserve">
<g>
	
		<linearGradient id="SVGID_1_" gradientUnits="userSpaceOnUse" x1="460.5605" y1="477.0605" x2="460.5605" y2="454.0625" gradientTransform="matrix(-1 0 0 -1 500.5605 477.5605)">
		<stop  offset="0" style="stop-color:#EEEBE8"/>
		<stop  offset="1" style="stop-color:#E8C6B0"/>
	</linearGradient>
	<path fill="url(#SVGID_1_)" d="M3.034,0.5h73.931c1.398,0,2.534,1.137,2.534,2.534v17.933c0,1.396-1.136,2.531-2.534,2.531H3.034
		c-1.397,0-2.534-1.137-2.534-2.531V3.034C0.5,1.637,1.637,0.5,3.034,0.5L3.034,0.5z"/>
	<path fill="#2AEDFF" d="M3.035,24C1.357,24,0,22.643,0,20.966V3.035C0,1.357,1.357,0,3.035,0h73.93C78.641,0,80,1.357,80,3.035
		v17.931C80,22.644,78.641,24,76.965,24H3.035 M3.035,23h73.93C78.087,23,79,22.088,79,20.966V3.035C79,1.913,78.087,1,76.965,1
		H3.035C1.913,1,1,1.913,1,3.035v17.931C1,22.088,1.913,23,3.035,23L3.035,23z"/>
</g>
</svg>
