<?xml version="1.0" encoding="utf-8"?>
<!-- Generator: Adobe Illustrator 15.0.2, SVG Export Plug-In . SVG Version: 6.00 Build 0)  -->
<!DOCTYPE svg PUBLIC "-//W3C//DTD SVG 1.1//EN" "http://www.w3.org/Graphics/SVG/1.1/DTD/svg11.dtd">
<svg version="1.1" id="Calque_1" xmlns="http://www.w3.org/2000/svg" xmlns:xlink="http://www.w3.org/1999/xlink" x="0px" y="0px"
	 width="24px" height="24px" viewBox="28 0 24 24" enable-background="new 28 0 24 24" xml:space="preserve">
<g>
	<path fill="#2D2D2D" d="M45.67,6.162c-1.194-0.979-2.02-0.691-2.44-0.287c-0.146,0.142-0.607,0.514-0.945,0.784
		c0.381,0.024,1.146,0.188,1.984,1.019c0.834,0.826,0.994,1.533,1.002,1.927C45.556,9.239,46,8.664,46.069,8.594
		C46.528,8.126,46.864,7.141,45.67,6.162z"/>
	<path fill="#2D2D2D" d="M40.884,8.136L39.787,9.1l-4.067,4.108l-0.338,0.603l-0.585,1.467l0,0L33.51,18.5l4.671-1.939l0.589-0.33
		l1.482-1.494l0,0l2.587-2.609l0.909-1.093c0,0,0.147-0.766-0.94-1.854C41.737,8.108,40.884,8.136,40.884,8.136z"/>
</g>
</svg>
