<?xml version="1.0" encoding="utf-8"?>
<!-- Generator: Adobe Illustrator 15.0.2, SVG Export Plug-In . SVG Version: 6.00 Build 0)  -->
<!DOCTYPE svg PUBLIC "-//W3C//DTD SVG 1.1//EN" "http://www.w3.org/Graphics/SVG/1.1/DTD/svg11.dtd">
<svg version="1.1" id="Calque_1" xmlns="http://www.w3.org/2000/svg" xmlns:xlink="http://www.w3.org/1999/xlink" x="0px" y="0px"
	 width="24px" height="24px" viewBox="28 0 24 24" enable-background="new 28 0 24 24" xml:space="preserve">
<g>
	<g>
		<polyline fill="#2D2D2D" points="40.47,12.502 43.607,12.502 43.607,11.54 40.47,11.54 		"/>
		<polyline fill="#2D2D2D" points="39.509,11.54 36.392,11.54 36.392,12.502 39.509,12.502 		"/>
	</g>
	<path fill="#2D2D2D" d="M40,6.407c3.084,0,5.593,2.509,5.593,5.593S43.084,17.593,40,17.593S34.407,15.084,34.407,12
		S36.916,6.407,40,6.407 M40,5.5c-3.59,0-6.5,2.91-6.5,6.5s2.91,6.5,6.5,6.5s6.5-2.91,6.5-6.5S43.59,5.5,40,5.5L40,5.5z"/>
</g>
<rect x="36.392" y="11.519" fill="#2D2D2D" width="7.215" height="0.983"/>
</svg>
