<?xml version="1.0" encoding="utf-8"?>
<!-- Generator: Adobe Illustrator 15.0.2, SVG Export Plug-In . SVG Version: 6.00 Build 0)  -->
<!DOCTYPE svg PUBLIC "-//W3C//DTD SVG 1.1//EN" "http://www.w3.org/Graphics/SVG/1.1/DTD/svg11.dtd">
<svg version="1.1" id="Calque_1" xmlns="http://www.w3.org/2000/svg" xmlns:xlink="http://www.w3.org/1999/xlink" x="0px" y="0px"
	 width="160.999px" height="34.999px" viewBox="-32.5 -0.5 160.999 34.999" enable-background="new -32.5 -0.5 160.999 34.999"
	 xml:space="preserve">
<g>
	<g>
		<polygon fill="#FFFBFF" points="23.094,18.775 23.094,24.021 9.023,24.021 9.023,18.775 16.06,13.408 		"/>
	</g>
	<g>
		<polygon fill="#FFFBFF" points="6.936,18.475 6.07,17.291 16.063,9.979 25.93,17.294 25.059,18.47 16.057,11.797 		"/>
	</g>
</g>
<g>
	<g>
		<polygon fill="#FFFBFF" points="-8.906,18.775 -8.906,24.021 -22.977,24.021 -22.977,18.775 -15.94,13.408 		"/>
	</g>
	<g>
		<polygon fill="#FFFBFF" points="-25.064,18.475 -25.93,17.291 -15.937,9.979 -6.07,17.294 -6.941,18.47 -15.943,11.797 		"/>
	</g>
</g>
<g>
	<g>
		<polygon fill="#FFFBFF" points="55.094,18.775 55.094,24.021 41.023,24.021 41.023,18.775 48.06,13.408 		"/>
	</g>
	<g>
		<polygon fill="#FFFBFF" points="38.936,18.475 38.07,17.291 48.063,9.979 57.93,17.294 57.059,18.47 48.057,11.797 		"/>
	</g>
</g>
<g>
	<g>
		<polygon fill="#FFFBFF" points="87.094,18.775 87.094,24.021 73.023,24.021 73.023,18.775 80.061,13.408 		"/>
	</g>
	<g>
		<polygon fill="#FFFBFF" points="70.936,18.475 70.07,17.291 80.063,9.979 89.93,17.294 89.059,18.47 80.057,11.797 		"/>
	</g>
</g>
<rect x="68" y="25.001" fill="#2679E0" width="24" height="4"/>
<rect x="100" y="25.001" fill="#2679E0" width="24" height="4"/>
<g>
	<g>
		<polygon fill="#FFFBFF" points="119.094,18.775 119.094,24.021 105.023,24.021 105.023,18.775 112.061,13.408 		"/>
	</g>
	<g>
		<polygon fill="#FFFBFF" points="102.936,18.475 102.07,17.291 112.063,9.979 121.93,17.294 121.059,18.47 112.057,11.797 		"/>
	</g>
</g>
</svg>
