<?xml version="1.0" encoding="utf-8"?>
<!-- Generator: Adobe Illustrator 15.0.2, SVG Export Plug-In . SVG Version: 6.00 Build 0)  -->
<!DOCTYPE svg PUBLIC "-//W3C//DTD SVG 1.1//EN" "http://www.w3.org/Graphics/SVG/1.1/DTD/svg11.dtd">
<svg version="1.1" id="Calque_1" xmlns="http://www.w3.org/2000/svg" xmlns:xlink="http://www.w3.org/1999/xlink" x="0px" y="0px"
	 width="546.377px" height="65.028px" viewBox="0 0 546.377 65.028" enable-background="new 0 0 546.377 65.028"
	 xml:space="preserve">
<g>
	<g opacity="0.5">
		<path fill="#C0C0C0" d="M63.794,64.117c-5.246,0.186-10.492,0.326-15.738,0.425c-5.246,0.077-10.492,0.21-15.738,0.243
			l-15.738,0.11c-5.246,0.05-10.492-0.038-15.738-0.05L0,64.844l0.014-0.826l0.272-15.738l0.146-7.869l0.065-7.868
			c0.065-5.246,0.028-10.492-0.005-15.738C0.487,11.558,0.358,6.313,0.295,1.066L0.289,0.527l0.554-0.008l15.738-0.246l15.738-0.147
			l15.738-0.102c5.246-0.043,10.492,0.01,15.738,0.011h1.036l-0.005,1.031c-0.026,5.246,0.002,10.492-0.067,15.738l-0.182,15.738
			L64.3,48.279c-0.095,5.246-0.273,10.492-0.406,15.738l-0.002,0.097L63.794,64.117z M63.691,63.915
			c-0.132-5.212-0.309-10.423-0.403-15.636l-0.276-15.737L62.83,16.804c-0.07-5.246-0.042-10.492-0.067-15.738l1.031,1.031
			c-5.246,0-10.492,0.054-15.738,0.011L32.318,2.007L16.581,1.86L0.843,1.614L1.39,1.066C1.327,6.313,1.199,11.558,1.194,16.804
			C1.161,22.05,1.124,27.296,1.189,32.542l0.065,7.868l0.146,7.869l0.272,15.738l-0.829-0.828c5.246-0.012,10.492-0.1,15.738-0.05
			l15.738,0.11c5.246,0.033,10.492,0.166,15.738,0.243C53.268,63.592,58.479,63.732,63.691,63.915z"/>
	</g>
	<g opacity="0.5">
		<path fill="#C0C0C0" d="M95.269,64.117c-5.246,0.186-10.492,0.326-15.738,0.425c-5.246,0.077-10.492,0.21-15.737,0.243
			l-15.738,0.11c-5.246,0.05-10.492-0.038-15.738-0.05l-0.843-0.002l0.014-0.826l0.272-15.738l0.146-7.869l0.065-7.868
			C32.038,27.296,32,22.05,31.967,16.804c-0.004-5.246-0.133-10.492-0.196-15.738l-0.007-0.539l0.554-0.008l15.738-0.246
			l15.737-0.147l15.738-0.102c5.246-0.043,10.492,0.01,15.738,0.011h1.036L96.3,1.066c-0.026,5.246,0.002,10.492-0.067,15.738
			l-0.182,15.738l-0.276,15.737c-0.095,5.246-0.273,10.492-0.406,15.738l-0.002,0.097L95.269,64.117z M95.167,63.915
			c-0.132-5.212-0.309-10.423-0.403-15.636l-0.276-15.737l-0.182-15.738c-0.07-5.246-0.042-10.492-0.067-15.738l1.031,1.031
			c-5.246,0-10.492,0.054-15.738,0.011L63.793,2.007L48.056,1.86L32.318,1.614l0.547-0.547c-0.063,5.246-0.191,10.492-0.196,15.738
			c-0.033,5.246-0.071,10.492-0.005,15.738l0.065,7.868l0.146,7.869l0.272,15.738l-0.829-0.828c5.246-0.012,10.492-0.1,15.738-0.05
			l15.738,0.11c5.246,0.033,10.492,0.166,15.737,0.243C84.743,63.592,89.955,63.732,95.167,63.915z"/>
	</g>
	<g opacity="0.5">
		<path fill="#C0C0C0" d="M213.831,64.117c-5.246,0.186-10.492,0.326-15.738,0.425c-5.246,0.077-10.492,0.21-15.738,0.243
			l-15.738,0.11c-5.246,0.05-10.492-0.038-15.738-0.05l-0.843-0.002l0.014-0.826l0.272-15.738l0.146-7.869l0.065-7.868
			c0.065-5.246,0.028-10.492-0.005-15.738c-0.004-5.246-0.133-10.492-0.196-15.738l-0.007-0.539l0.554-0.008l15.738-0.246
			l15.738-0.147l15.738-0.102c5.246-0.043,10.492,0.01,15.738,0.011h1.036l-0.005,1.031c-0.026,5.246,0.002,10.492-0.067,15.738
			l-0.182,15.738l-0.276,15.737c-0.095,5.246-0.273,10.492-0.406,15.738l-0.002,0.097L213.831,64.117z M213.729,63.915
			c-0.132-5.212-0.309-10.423-0.403-15.636l-0.276-15.737l-0.182-15.738c-0.07-5.246-0.042-10.492-0.067-15.738l1.031,1.031
			c-5.246,0-10.492,0.054-15.738,0.011l-15.738-0.102L166.618,1.86L150.88,1.614l0.547-0.547
			c-0.063,5.246-0.191,10.492-0.196,15.738c-0.033,5.246-0.071,10.492-0.005,15.738l0.065,7.868l0.146,7.869l0.272,15.738
			l-0.829-0.828c5.246-0.012,10.492-0.1,15.738-0.05l15.738,0.11c5.246,0.033,10.492,0.166,15.738,0.243
			C203.305,63.592,208.517,63.732,213.729,63.915z"/>
	</g>
	<g opacity="0.5">
		<path fill="#C0C0C0" d="M245.306,64.117c-5.246,0.186-10.492,0.326-15.738,0.425c-5.246,0.077-10.492,0.21-15.737,0.243
			l-15.738,0.11c-5.246,0.05-10.492-0.038-15.738-0.05l-0.843-0.002l0.014-0.826l0.272-15.738l0.146-7.869l0.065-7.868
			c0.065-5.246,0.028-10.492-0.005-15.738c-0.004-5.246-0.133-10.492-0.196-15.738l-0.007-0.539l0.554-0.008l15.738-0.246
			l15.737-0.147l15.738-0.102c5.246-0.043,10.492,0.01,15.738,0.011h1.036l-0.005,1.031c-0.026,5.246,0.002,10.492-0.067,15.738
			l-0.182,15.738l-0.276,15.737c-0.095,5.246-0.273,10.492-0.406,15.738l-0.002,0.097L245.306,64.117z M245.204,63.915
			c-0.132-5.212-0.309-10.423-0.403-15.636l-0.276-15.737l-0.182-15.738c-0.07-5.246-0.042-10.492-0.067-15.738l1.031,1.031
			c-5.246,0-10.492,0.054-15.738,0.011l-15.738-0.102L198.093,1.86l-15.738-0.246l0.547-0.547
			c-0.063,5.246-0.191,10.492-0.196,15.738c-0.033,5.246-0.071,10.492-0.005,15.738l0.065,7.868l0.146,7.869l0.272,15.738
			l-0.829-0.828c5.246-0.012,10.492-0.1,15.738-0.05l15.738,0.11c5.246,0.033,10.492,0.166,15.737,0.243
			C234.78,63.592,239.992,63.732,245.204,63.915z"/>
	</g>
	<g opacity="0.5">
		<path fill="#C0C0C0" d="M213.931,32.542c0.012,8.249-3.059,16.581-8.875,22.7c-2.876,3.063-6.406,5.563-10.316,7.197
			c-3.903,1.665-8.148,2.471-12.395,2.41c-4.207-0.077-8.418-1.011-12.25-2.708c-3.836-1.7-7.307-4.148-10.225-7.114
			c-2.914-2.969-5.3-6.464-6.925-10.303c-1.602-3.843-2.55-7.985-2.612-12.183c-0.244-8.393,3.101-16.898,9.101-22.922
			c2.976-3.025,6.554-5.466,10.475-7.126c3.919-1.67,8.191-2.496,12.447-2.494c4.254,0.034,8.517,0.872,12.416,2.567
			c3.909,1.668,7.431,4.183,10.306,7.253C210.882,15.958,213.966,24.288,213.931,32.542z M213.731,32.542
			c-0.019-4.106-0.863-8.213-2.546-11.94c-1.674-3.727-4.085-7.095-7.038-9.85c-5.901-5.511-13.806-8.694-21.791-8.618
			c-7.969-0.014-15.896,3.177-21.591,8.818c-2.844,2.809-5.168,6.16-6.761,9.848c-1.582,3.689-2.496,7.689-2.576,11.744
			c-0.225,8.106,3.047,16.316,8.901,22.027c5.825,5.764,14.002,8.812,22.038,8.616c8.017-0.092,15.91-3.293,21.802-8.831
			c2.947-2.766,5.358-6.136,7.032-9.865C212.883,40.759,213.722,36.65,213.731,32.542z"/>
	</g>
	<g opacity="0.5">
		<path fill="#C0C0C0" d="M245.406,32.542c0.012,8.249-3.059,16.581-8.875,22.7c-2.876,3.063-6.406,5.563-10.316,7.197
			c-3.902,1.665-8.148,2.471-12.395,2.41c-4.208-0.077-8.419-1.011-12.25-2.708c-3.836-1.7-7.307-4.148-10.225-7.114
			c-2.914-2.969-5.3-6.464-6.925-10.303c-1.602-3.846-2.55-7.979-2.612-12.189c-0.244-8.379,3.101-16.895,9.101-22.915
			c2.976-3.024,6.554-5.466,10.475-7.126c3.919-1.67,8.191-2.496,12.447-2.494c4.254,0.034,8.517,0.872,12.416,2.567
			c3.909,1.668,7.431,4.183,10.306,7.253C242.357,15.958,245.441,24.288,245.406,32.542z M245.206,32.542
			c-0.019-4.106-0.863-8.213-2.546-11.94c-1.674-3.727-4.085-7.095-7.038-9.85c-5.901-5.511-13.806-8.695-21.791-8.618
			c-7.969-0.014-15.896,3.177-21.592,8.818c-5.724,5.599-9.181,13.467-9.336,21.598c-0.225,8.093,3.047,16.313,8.901,22.021
			c5.825,5.764,14.002,8.812,22.038,8.616c8.017-0.092,15.91-3.293,21.802-8.831c2.947-2.766,5.357-6.136,7.031-9.865
			C244.358,40.759,245.197,36.65,245.206,32.542z"/>
	</g>
	<g opacity="0.5">
		<path fill="#C0C0C0" d="M363.931,32.542c0.012,8.249-3.059,16.581-8.875,22.7c-2.877,3.063-6.406,5.563-10.316,7.197
			c-3.902,1.665-8.148,2.471-12.395,2.41c-4.207-0.077-8.419-1.011-12.25-2.708c-3.837-1.7-7.308-4.148-10.226-7.114
			c-2.914-2.969-5.3-6.464-6.925-10.303c-1.602-3.843-2.55-7.985-2.612-12.183c-0.243-8.393,3.101-16.898,9.101-22.922
			c2.977-3.025,6.555-5.466,10.476-7.126c3.919-1.67,8.191-2.496,12.446-2.494c4.254,0.034,8.518,0.872,12.416,2.567
			c3.91,1.668,7.432,4.183,10.307,7.253C360.882,15.958,363.966,24.288,363.931,32.542z M363.731,32.542
			c-0.019-4.106-0.863-8.213-2.546-11.94c-1.675-3.727-4.086-7.095-7.039-9.85c-5.9-5.511-13.805-8.694-21.791-8.618
			c-7.969-0.014-15.896,3.177-21.591,8.818c-2.844,2.809-5.168,6.16-6.761,9.848c-1.582,3.689-2.496,7.689-2.576,11.744
			c-0.225,8.106,3.047,16.316,8.9,22.027c5.826,5.764,14.003,8.812,22.038,8.616c8.017-0.092,15.909-3.293,21.802-8.831
			c2.947-2.766,5.358-6.136,7.032-9.865C362.882,40.759,363.722,36.65,363.731,32.542z"/>
	</g>
	<g opacity="0.5">
		<path fill="#C0C0C0" d="M395.406,32.542c0.012,8.249-3.059,16.581-8.875,22.7c-2.876,3.063-6.405,5.563-10.316,7.197
			c-3.902,1.665-8.147,2.471-12.395,2.41c-4.207-0.077-8.418-1.011-12.25-2.708c-3.836-1.7-7.307-4.148-10.225-7.114
			c-2.914-2.969-5.3-6.464-6.925-10.303c-1.602-3.846-2.55-7.979-2.612-12.189c-0.244-8.379,3.101-16.895,9.102-22.915
			c2.975-3.024,6.553-5.466,10.475-7.126c3.92-1.67,8.191-2.496,12.447-2.494c4.254,0.034,8.517,0.872,12.416,2.567
			c3.908,1.668,7.431,4.183,10.305,7.253C392.357,15.958,395.441,24.288,395.406,32.542z M395.207,32.542
			c-0.02-4.106-0.863-8.213-2.547-11.94c-1.674-3.727-4.086-7.095-7.037-9.85c-5.901-5.511-13.807-8.695-21.791-8.618
			c-7.97-0.014-15.896,3.177-21.592,8.818c-5.725,5.599-9.182,13.467-9.337,21.598c-0.225,8.093,3.047,16.313,8.901,22.021
			c5.824,5.764,14.002,8.812,22.037,8.616c8.018-0.092,15.91-3.293,21.803-8.831c2.946-2.766,5.357-6.136,7.031-9.865
			C394.358,40.759,395.197,36.65,395.207,32.542z"/>
	</g>
	<g opacity="0.5">
		<path fill="#C0C0C0" d="M332.355,1.167c-2.623,0.382-5.246,0.55-7.868,0.675c-2.623,0.111-5.246,0.174-7.869,0.058
			c-2.623-0.124-5.246-0.447-7.868-0.508c-2.623-0.076-5.246,0.049-7.869,0.223l0.547-0.547c0.194,2.623,0.348,5.246,0.393,7.869
			c0.07,2.623,0.154,5.246,0.127,7.869c-0.092,5.246-0.324,10.492-0.967,15.738h-0.2c-0.644-5.246-0.874-10.492-0.966-15.738
			c-0.027-2.623,0.057-5.246,0.125-7.869c0.045-2.623,0.199-5.246,0.394-7.869l0.043-0.581l0.505,0.034
			c2.623,0.174,5.246,0.299,7.869,0.223c2.622-0.062,5.245-0.385,7.868-0.508c2.623-0.116,5.246-0.053,7.869,0.058
			c2.622,0.125,5.245,0.293,7.868,0.675V1.167z"/>
	</g>
	<g opacity="0.5">
		<path fill="#C0C0C0" d="M363.832,0.966c2.623-0.382,5.245-0.55,7.868-0.675c2.623-0.111,5.246-0.174,7.868-0.058
			c2.623,0.124,5.246,0.447,7.869,0.508c2.623,0.076,5.246-0.049,7.869-0.223l0.504-0.034l0.043,0.581
			c0.195,2.623,0.349,5.246,0.394,7.869c0.069,2.623,0.153,5.246,0.126,7.869c-0.092,5.246-0.323,10.492-0.967,15.738h-0.199
			c-0.644-5.246-0.875-10.492-0.967-15.738c-0.027-2.623,0.057-5.246,0.126-7.869c0.045-2.623,0.198-5.246,0.394-7.869l0.547,0.547
			c-2.623-0.174-5.246-0.299-7.869-0.223c-2.623,0.062-5.246,0.385-7.869,0.508c-2.622,0.116-5.245,0.053-7.868-0.058
			c-2.623-0.125-5.245-0.293-7.868-0.675V0.966z"/>
	</g>
	<g opacity="0.5">
		<path fill="#C0C0C0" d="M482.356,0.966c6.202-0.378,12.601,1.31,17.917,4.759c5.33,3.415,9.621,8.532,11.936,14.451
			c1.144,2.961,1.814,6.088,2.024,9.227c0.203,3.14-0.048,6.289-0.687,9.343c-1.275,6.109-4.218,11.868-8.549,16.439
			c-4.3,4.59-10.074,7.874-16.318,9.154c-6.227,1.311-12.878,0.762-18.78-1.727c-5.891-2.483-10.988-6.78-14.371-12.146
			c-3.398-5.35-5.097-11.718-4.747-17.925h0.199c0.321,6.16,2.351,12.137,5.856,17.05c3.479,4.923,8.34,8.813,13.88,11.051
			c5.516,2.27,11.698,2.951,17.598,1.852c5.895-1.096,11.48-3.916,15.91-8.083c4.426-4.159,7.587-9.76,8.687-15.79
			c1.122-6.029,0.205-12.326-2.24-17.807c-2.405-5.512-6.301-10.355-11.26-13.801c-4.945-3.457-10.892-5.497-17.057-5.847
			L482.356,0.966z"/>
	</g>
	<g opacity="0.5">
		<path fill="#C0C0C0" d="M545.406,32.543c0.379,6.203-1.309,12.6-4.758,17.917c-3.415,5.33-8.532,9.621-14.451,11.936
			c-2.961,1.143-6.088,1.814-9.227,2.024c-3.14,0.203-6.289-0.048-9.344-0.687c-6.108-1.275-11.868-4.218-16.439-8.549
			c-4.591-4.3-7.874-10.074-9.154-16.318c-1.31-6.227-0.762-12.878,1.727-18.78c2.483-5.892,6.78-10.989,12.145-14.372
			c5.351-3.399,11.719-5.098,17.926-4.749v0.2c-6.16,0.32-12.137,2.351-17.049,5.857c-4.923,3.478-8.813,8.34-11.051,13.88
			c-2.269,5.516-2.951,11.698-1.852,17.598c1.097,5.895,3.916,11.48,8.083,15.91c4.159,4.426,9.76,7.587,15.79,8.687
			c6.029,1.122,12.326,0.205,17.808-2.24c5.513-2.405,10.354-6.302,13.801-11.261c3.456-4.945,5.497-10.892,5.847-17.057
			L545.406,32.543z"/>
	</g>
	<g opacity="0.5">
		<path fill="#C0C0C0" d="M482.355,1.167c-2.623,0.381-5.246,0.55-7.868,0.675c-2.623,0.111-5.246,0.174-7.869,0.058
			c-2.623-0.124-5.246-0.447-7.868-0.508c-2.623-0.076-5.246,0.049-7.869,0.223l0.548-0.547c0.193,2.623,0.348,5.246,0.393,7.869
			c0.069,2.623,0.153,5.246,0.126,7.869c-0.092,5.246-0.323,10.492-0.967,15.738h-0.199c-0.644-5.246-0.875-10.492-0.967-15.738
			c-0.027-2.623,0.057-5.246,0.126-7.869c0.045-2.623,0.199-5.246,0.393-7.869l0.043-0.581l0.505,0.034
			c2.623,0.174,5.246,0.299,7.869,0.223c2.622-0.062,5.245-0.385,7.868-0.508c2.623-0.116,5.246-0.053,7.869,0.058
			c2.622,0.125,5.245,0.293,7.868,0.675V1.167z"/>
	</g>
	<g opacity="0.5">
		<path fill="#C0C0C0" d="M513.83,0.966c2.623-0.382,5.246-0.55,7.869-0.675c2.623-0.111,5.246-0.174,7.869-0.058
			c2.623,0.124,5.246,0.447,7.869,0.508c2.623,0.076,5.246-0.049,7.869-0.223l0.505-0.034l0.043,0.581
			c0.193,2.623,0.348,5.246,0.393,7.869c0.069,2.623,0.153,5.246,0.126,7.869c-0.092,5.246-0.323,10.492-0.967,15.738h-0.199
			c-0.644-5.246-0.875-10.492-0.967-15.738c-0.027-2.623,0.057-5.246,0.126-7.869c0.045-2.623,0.199-5.246,0.393-7.869l0.548,0.547
			c-2.623-0.174-5.246-0.299-7.869-0.223c-2.623,0.062-5.246,0.385-7.869,0.508c-2.623,0.116-5.246,0.053-7.869-0.058
			c-2.623-0.125-5.246-0.293-7.869-0.675V0.966z"/>
	</g>
</g>
</svg>
