<?xml version="1.0" encoding="utf-8"?>
<!-- Generator: Adobe Illustrator 15.0.2, SVG Export Plug-In . SVG Version: 6.00 Build 0)  -->
<!DOCTYPE svg PUBLIC "-//W3C//DTD SVG 1.1//EN" "http://www.w3.org/Graphics/SVG/1.1/DTD/svg11.dtd">
<svg version="1.1" id="A_1_" xmlns="http://www.w3.org/2000/svg" xmlns:xlink="http://www.w3.org/1999/xlink" x="0px" y="0px"
	 width="139.982px" height="139.982px" viewBox="0 0 139.982 139.982" enable-background="new 0 0 139.982 139.982"
	 xml:space="preserve">
<g id="c">
	<g>
		<polygon fill="#189DD7" points="34.784,107.844 34.784,113.721 67.143,108.653 105.571,113.725 105.571,107.841 67.163,101.288 		
			"/>
		<polygon fill="#189DD7" points="34.784,97.464 34.784,103.319 67.141,96.764 105.571,103.323 105.571,97.46 67.163,90.163 		"/>
		<polygon fill="#189DD7" points="34.784,118.219 34.784,119.991 105.571,119.991 105.571,118.219 67.161,113.147 		"/>
		<polygon fill="#189DD7" points="105.571,40.874 105.571,35.204 67.153,19.991 34.784,35.204 34.784,40.856 67.13,26.887 		"/>
		<polygon fill="#189DD7" points="105.571,50.563 105.571,45.614 67.175,31.645 34.784,45.63 34.784,50.552 67.134,38.805 		"/>
		<polygon fill="#189DD7" points="34.784,87.094 34.784,92.921 67.141,85.626 105.571,92.925 105.571,87.087 67.167,78.307 		"/>
		<polygon fill="#189DD7" points="34.784,65.594 34.784,71.37 67.137,61.848 105.571,71.378 105.571,65.587 67.169,55.325 		"/>
		<polygon fill="#189DD7" points="34.784,75.971 34.784,82.51 67.139,73.733 105.571,82.518 105.571,75.966 67.167,66.446 		"/>
		<polygon fill="#189DD7" points="67.171,43.477 34.784,55.231 34.784,60.968 67.135,50.706 105.571,60.975 105.571,55.219 		"/>
	</g>
	<g>
		<g>
			<polygon fill="#2A769C" points="108.37,112.268 108.37,116.005 124.03,112.78 139.991,116.007 139.991,112.264 124.042,108.096 
							"/>
			<polygon fill="#2A769C" points="108.37,105.667 108.37,109.389 124.028,105.221 139.991,109.391 139.991,105.663 
				124.044,101.022 			"/>
			<polygon fill="#2A769C" points="108.37,118.864 108.37,119.991 139.991,119.991 139.991,118.862 124.042,115.639 			"/>
			<polygon fill="#2A769C" points="139.991,69.68 139.991,66.075 124.036,56.399 108.37,66.075 108.37,69.669 124.022,60.786 			"/>
			<polygon fill="#2A769C" points="139.991,75.841 139.991,72.694 124.05,63.811 108.37,72.704 108.37,75.835 124.024,68.364 			"/>
			<polygon fill="#2A769C" points="108.37,99.071 108.37,102.776 124.028,98.137 139.991,102.78 139.991,99.067 124.046,93.485 			
				"/>
			<polygon fill="#2A769C" points="108.37,85.401 108.37,89.071 124.026,83.018 139.991,89.077 139.991,85.393 124.046,78.87 			"/>
			<polygon fill="#2A769C" points="108.37,91.999 108.37,96.157 124.026,90.575 139.991,96.163 139.991,91.995 124.046,85.94 			"/>
			<polygon fill="#2A769C" points="124.048,71.335 108.37,78.811 108.37,82.456 124.026,75.932 139.991,82.464 139.991,78.803 			
				"/>
		</g>
	</g>
	<g>
		<g>
			<polygon fill="#0A4C78" points="31.612,112.268 31.612,116.005 15.952,112.78 -0.009,116.007 -0.009,112.264 15.94,108.096 			
				"/>
			<polygon fill="#0A4C78" points="31.612,105.667 31.612,109.389 15.954,105.221 -0.009,109.391 -0.009,105.663 15.938,101.022 			
				"/>
			<polygon fill="#0A4C78" points="31.612,118.864 31.612,119.991 -0.009,119.991 -0.009,118.862 15.94,115.639 			"/>
			<polygon fill="#0A4C78" points="-0.009,69.68 -0.009,66.075 15.946,56.399 31.612,66.075 31.612,69.669 15.96,60.786 			"/>
			<polygon fill="#0A4C78" points="-0.009,75.841 -0.009,72.694 15.932,63.811 31.612,72.704 31.612,75.835 15.958,68.364 			"/>
			<polygon fill="#0A4C78" points="31.612,99.071 31.612,102.776 15.954,98.137 -0.009,102.78 -0.009,99.067 15.936,93.485 			"/>
			<polygon fill="#0A4C78" points="31.612,85.401 31.612,89.071 15.956,83.018 -0.009,89.077 -0.009,85.393 15.936,78.87 			"/>
			<polygon fill="#0A4C78" points="31.612,91.999 31.612,96.157 15.956,90.575 -0.009,96.163 -0.009,91.995 15.936,85.94 			"/>
			<polygon fill="#0A4C78" points="15.934,71.335 31.612,78.811 31.612,82.456 15.956,75.932 -0.009,82.464 -0.009,78.803 			"/>
		</g>
	</g>
</g>
<g id="B">
</g>
</svg>
