<?xml version="1.0" encoding="utf-8"?>
<!-- Generator: Adobe Illustrator 15.0.2, SVG Export Plug-In . SVG Version: 6.00 Build 0)  -->
<!DOCTYPE svg PUBLIC "-//W3C//DTD SVG 1.1//EN" "http://www.w3.org/Graphics/SVG/1.1/DTD/svg11.dtd">
<svg version="1.1" id="Calque_1" xmlns="http://www.w3.org/2000/svg" xmlns:xlink="http://www.w3.org/1999/xlink" x="0px" y="0px"
	 width="139.982px" height="139.982px" viewBox="0 0 139.982 139.982" enable-background="new 0 0 139.982 139.982"
	 xml:space="preserve">
<g>
	<polygon fill="#0A4C78" points="139.991,117.719 133.784,112.911 133.784,116.018 6.202,116.018 6.202,24.108 9.308,24.108 
		4.799,17.899 -0.009,24.108 3.097,24.108 3.097,119.124 133.784,119.124 133.784,122.23 	"/>
	<g>
		<polygon fill="#189DD7" points="34.823,110.692 52.723,110.692 52.723,70.619 34.823,80.258 		"/>
		<polygon fill="#189DD7" points="11.308,110.692 29.204,110.692 29.204,83.281 11.308,92.919 		"/>
		<polygon fill="#189DD7" points="82.303,110.692 100.204,110.692 100.204,45.052 82.303,54.69 		"/>
		<polygon fill="#189DD7" points="58.788,110.692 76.688,110.692 76.688,57.717 58.788,67.354 		"/>
		<polygon fill="#189DD7" points="106.268,41.788 106.268,110.692 124.169,110.692 124.169,32.152 		"/>
	</g>
	<g>
		<line fill="#189DD7" x1="11.308" y1="83.159" x2="124.169" y2="22.392"/>
		<polygon fill="#189DD7" points="11.308,85.974 11.308,80.385 124.169,19.576 124.169,25.166 		"/>
	</g>
	<polygon fill="#189DD7" points="119.569,17.752 129.898,19.705 125.233,28.859 	"/>
</g>
</svg>
