<?xml version="1.0" encoding="utf-8"?>
<!-- Generator: Adobe Illustrator 15.0.2, SVG Export Plug-In . SVG Version: 6.00 Build 0)  -->
<!DOCTYPE svg PUBLIC "-//W3C//DTD SVG 1.1//EN" "http://www.w3.org/Graphics/SVG/1.1/DTD/svg11.dtd">
<svg version="1.1" id="Calque_1" xmlns="http://www.w3.org/2000/svg" xmlns:xlink="http://www.w3.org/1999/xlink" x="0px" y="0px"
	 width="347px" height="200px" viewBox="0 0 347 200" enable-background="new 0 0 347 200" xml:space="preserve">
<g>
	<polygon fill="#2CA6E7" points="271.43,65.208 193.189,12.819 193.497,43.108 275.061,89.528 	"/>
	<polygon fill="#5FBDEF" points="149.337,42.606 149.337,68.483 193.497,43.108 193.189,12.819 	"/>
	<polygon fill="#5FBDEF" points="142.979,46.922 142.979,84.855 193.497,59.316 193.497,94.189 105.575,133.48 116.06,65.208 	"/>
	<polygon fill="#2CA6E7" points="240.322,83.054 193.497,59.316 193.497,94.189 240.322,112.688 	"/>
	<polygon fill="#2CA6E7" points="276.932,102.057 247.532,87.313 247.532,127.098 193.497,109.74 193.497,153.785 287.805,174.904 	
		"/>
	<polygon fill="#5FBDEF" points="103.726,145.564 193.497,109.74 193.497,153.785 99.196,175.066 	"/>
	<polygon fill="#1C8DD3" points="287.805,174.904 193.497,153.785 99.196,175.066 193.189,187.182 	"/>
	<polygon fill="#1C8DD3" points="275.061,89.528 257.411,92.269 247.532,87.313 240.322,89.528 240.322,83.054 193.497,59.316 
		142.979,84.855 142.979,46.922 149.337,48.675 149.337,68.483 193.497,43.108 	"/>
	<polygon fill="#1C8DD3" points="105.575,133.48 126.914,136.309 193.497,109.74 209.023,114.727 240.322,112.688 193.497,94.189 	
		"/>
	<polygon fill="#5FBDEF" points="247.532,127.098 209.023,114.727 240.322,112.688 240.322,89.528 247.532,87.313 	"/>
</g>
</svg>
