<?xml version="1.0" encoding="utf-8"?>
<!-- Generator: Adobe Illustrator 15.0.2, SVG Export Plug-In . SVG Version: 6.00 Build 0)  -->
<!DOCTYPE svg PUBLIC "-//W3C//DTD SVG 1.1//EN" "http://www.w3.org/Graphics/SVG/1.1/DTD/svg11.dtd">
<svg version="1.1" id="Calque_1" xmlns="http://www.w3.org/2000/svg" xmlns:xlink="http://www.w3.org/1999/xlink" x="0px" y="0px"
	 width="139.982px" height="139.982px" viewBox="0 0 139.982 139.982" enable-background="new 0 0 139.982 139.982"
	 xml:space="preserve">
<g>
	<path fill="#189DD7" d="M43.49,68.886l36.966-1.936l2.283-36.837l0.842-13.601l0.746-12.05L84.6,0.051
		c-0.959-0.041-1.919-0.06-2.871-0.06l0,0c-17.278,0-33.796,6.47-46.514,18.216C22.437,30.014,14.707,46.062,13.458,63.396
		c-0.169,2.346-0.216,4.717-0.145,7.071l4.427-0.229l12.1-0.634L43.49,68.886z"/>
	<path fill="#0A4C78" d="M54.192,112.22l6.937-11.741l18.099-30.622L43.64,71.724l-13.65,0.711l-12.1,0.635l-5.865,0.312
		l-3.377,0.175l-5.857,0.307c0.881,12.595,4.837,24.904,11.479,35.694c6.516,10.582,15.518,19.562,26.097,26.048l2.975-5.031
		l1.717-2.904l2.98-5.048L54.192,112.22z"/>
	<path fill="#0A4C78" d="M115.453,53.267c-2.584-5.742-6.606-10.735-11.692-14.503c-5.34-3.954-11.638-6.379-18.269-7.044
		l-2.13,34.426L115.453,53.267z"/>
	<path fill="#189DD7" d="M125.745,125.034l-1.217-1.51l-3.681-4.566l-7.591-9.406l-8.566-10.614L81.981,70.79l-18.397,31.128
		l-6.942,11.741l-6.147,10.407l-2.983,5.042l-0.987,1.674c9.272,5.217,19.397,8.252,30.114,9.023c1.739,0.12,3.5,0.186,5.233,0.186
		C97.684,139.991,113.205,134.686,125.745,125.034z"/>
	<path fill="#189DD7" d="M116.694,84.111l10.938,5.452c2.598-5.556,4.14-11.484,4.583-17.647c0.524-7.257-0.487-14.35-3.005-21.109
		l-11.348,4.556L85.265,68.441L116.694,84.111z"/>
	<path fill="#0A4C78" d="M87.002,72.479l19.906,24.675l8.569,10.62l6.686,8.285c6.131-5.151,11.287-11.522,15.028-18.555
		l-9.543-4.758l-12.226-6.098L87.002,72.479z"/>
</g>
</svg>
