<?xml version="1.0" encoding="utf-8"?>
<!-- Generator: Adobe Illustrator 15.0.2, SVG Export Plug-In . SVG Version: 6.00 Build 0)  -->
<!DOCTYPE svg PUBLIC "-//W3C//DTD SVG 1.1//EN" "http://www.w3.org/Graphics/SVG/1.1/DTD/svg11.dtd">
<svg version="1.1" id="Calque_1" xmlns="http://www.w3.org/2000/svg" xmlns:xlink="http://www.w3.org/1999/xlink" x="0px" y="0px"
	 width="369px" height="384px" viewBox="0 0 369 384" enable-background="new 0 0 369 384" xml:space="preserve">
<g>
	<polygon fill="#2CA6E7" points="280.005,139.361 184.12,75.155 184.496,112.276 284.455,169.166 	"/>
	<polygon fill="#5FBDEF" points="130.377,111.662 130.377,143.375 184.496,112.276 184.12,75.155 	"/>
	<polygon fill="#5FBDEF" points="122.584,116.95 122.584,163.439 184.496,132.139 184.496,174.878 76.745,223.032 89.594,139.361 	
		"/>
	<polygon fill="#2CA6E7" points="241.882,161.232 184.496,132.139 184.496,174.878 241.882,197.55 	"/>
	<polygon fill="#2CA6E7" points="286.749,184.521 250.721,166.452 250.721,215.209 184.496,193.938 184.496,247.915 
		300.074,273.797 	"/>
	<polygon fill="#5FBDEF" points="74.478,237.841 184.496,193.938 184.496,247.915 68.926,273.997 	"/>
	<polygon fill="#1C8DD3" points="300.074,273.797 184.496,247.915 68.926,273.997 184.12,288.845 	"/>
	<polygon fill="#1C8DD3" points="284.455,169.166 262.826,172.524 250.721,166.452 241.882,169.166 241.882,161.232 
		184.496,132.139 122.584,163.439 122.584,116.95 130.377,119.099 130.377,143.375 184.496,112.276 	"/>
	<polygon fill="#1C8DD3" points="76.745,223.032 102.896,226.498 184.496,193.938 203.523,200.048 241.882,197.55 184.496,174.878 	
		"/>
	<polygon fill="#5FBDEF" points="250.721,215.209 203.523,200.048 241.882,197.55 241.882,169.166 250.721,166.452 	"/>
</g>
</svg>
