<?xml version="1.0" encoding="utf-8"?>
<!-- Generator: Adobe Illustrator 15.0.0, SVG Export Plug-In . SVG Version: 6.00 Build 0)  -->
<!DOCTYPE svg PUBLIC "-//W3C//DTD SVG 1.1//EN" "http://www.w3.org/Graphics/SVG/1.1/DTD/svg11.dtd">
<svg version="1.1" id="Calque_1" xmlns="http://www.w3.org/2000/svg" xmlns:xlink="http://www.w3.org/1999/xlink" x="0px" y="0px"
	 width="80px" height="28px" viewBox="0 0 80 28" enable-background="new 0 0 80 28" xml:space="preserve">
<g id="Effet_NoPatch">
	
		<linearGradient id="SVGID_1_" gradientUnits="userSpaceOnUse" x1="61.9863" y1="-144.5254" x2="116.1973" y2="-144.5254" gradientTransform="matrix(1 0 0 -1 -41.6001 -135.96)">
		<stop  offset="0" style="stop-color:#0098C9"/>
		<stop  offset="0.0554" style="stop-color:#32ABD2"/>
		<stop  offset="0.1239" style="stop-color:#69C0DD"/>
		<stop  offset="0.1907" style="stop-color:#97D2E6"/>
		<stop  offset="0.2542" style="stop-color:#BBDFEC"/>
		<stop  offset="0.3136" style="stop-color:#D4E9F1"/>
		<stop  offset="0.3672" style="stop-color:#E4EFF4"/>
		<stop  offset="0.41" style="stop-color:#E9F1F5"/>
		<stop  offset="0.4693" style="stop-color:#E3EFF4"/>
		<stop  offset="0.547" style="stop-color:#D3E9F1"/>
		<stop  offset="0.6349" style="stop-color:#B8DEEC"/>
		<stop  offset="0.7303" style="stop-color:#92D0E5"/>
		<stop  offset="0.8318" style="stop-color:#61BEDC"/>
		<stop  offset="0.9367" style="stop-color:#27A8D1"/>
		<stop  offset="1" style="stop-color:#0099CA"/>
	</linearGradient>
	<path fill="url(#SVGID_1_)" d="M20.386,12.267c0,0,22.715-13.347,40.633-12.197c18.66,1.198,12.808,16.19,12.365,17.062
		c0,0,0.59-11.181-12.365-12.923C43.646,2.466,20.386,12.267,20.386,12.267z"/>
</g>
<g id="Calque_1_1_">
	<g>
		<path fill="#FFFBFF" d="M4.714,14.521l2.858,8.77l3.059-8.77h2.254l2.777,8.77l3.08-8.77h2.917l-5.534,13.112h-2.576l-2.536-7.651
			l-2.938,7.651H5.479c0,0-3.453-9.79-3.868-10.862C0.887,14.9,0,14.521,0,14.521H4.714z"/>
		<path fill="#FFFBFF" d="M43.238,14.521c0.422,0,4.566-0.083,5.011-0.083c3.36,0,5.856,0.083,7.587,2.213
			c1.107,1.344,1.288,3.082,1.288,4.033c0,3.226-1.812,5.457-4.347,6.39c-1.289,0.476-3.021,0.559-5.012,0.559h-4.527V14.521z
			 M46.921,25.834h0.865c2.758,0,5.394,0,5.394-5.005c0-4.631-2.838-4.631-4.469-4.631c-0.502,0-1.188,0.021-1.79,0.021V25.834z"/>
		<polygon fill="#FFFBFF" points="67.137,16.489 67.137,18.159 61.779,18.159 61.779,20.973 66.555,20.973 66.555,22.605 
			61.779,22.605 61.779,25.857 67.357,25.857 67.357,27.634 58.65,27.634 58.65,16.489 		"/>
		<polygon fill="#FFFBFF" points="71.202,16.489 73.904,24.275 77.035,16.489 79.566,16.489 74.266,27.634 72.006,27.634 
			67.645,16.489 		"/>
		<path fill="#FFFBFF" d="M76.936,26.53c0-0.694,0.602-1.218,1.369-1.218c0.758,0,1.357,0.522,1.357,1.218
			c0,0.706-0.6,1.226-1.357,1.226C77.536,27.755,76.936,27.234,76.936,26.53z M78.305,28C79.218,28,80,27.379,80,26.53
			c0-0.841-0.782-1.462-1.695-1.462c-0.925,0-1.705,0.621-1.705,1.462C76.6,27.379,77.38,28,78.305,28z M77.947,26.646h0.339
			l0.511,0.732h0.328l-0.551-0.744c0.283-0.031,0.502-0.162,0.502-0.465c0-0.334-0.227-0.48-0.684-0.48h-0.736v1.689h0.291V26.646z
			 M77.947,26.43v-0.523h0.4c0.205,0,0.422,0.039,0.422,0.248c0,0.26-0.224,0.275-0.472,0.275H77.947z"/>
		<path fill="#FFFBFF" d="M38.191,16.489c1.059,0,1.905,0.222,2.542,0.667c0.674,0.477,1.011,1.186,1.011,2.124
			c0,0.987-0.403,1.687-1.208,2.098c-0.264,0.142-0.656,0.279-1.181,0.416c0.614,0.114,1.109,0.295,1.487,0.544
			c0.743,0.5,1.116,1.219,1.116,2.155c0,1.151-0.473,2.002-1.415,2.556c-0.619,0.364-1.352,0.544-2.193,0.544h-5.468V16.489H38.191z
			 M36.06,21.373h0.642c0.614,0,1.06-0.104,1.335-0.309c0.182-0.141,0.33-0.361,0.446-0.666c0.115-0.301,0.174-0.629,0.174-0.981
			c0-1.151-0.584-1.728-1.749-1.728H36.06V21.373z M36.06,26.391h1.005c1.123,0,1.684-0.599,1.684-1.799
			c0-1.363-0.656-2.044-1.973-2.044H36.06V26.391z"/>
		<polygon fill="#FFFBFF" points="31.001,16.489 31.001,18.159 25.647,18.159 25.647,20.973 30.421,20.973 30.421,22.605 
			25.647,22.605 25.647,25.857 31.224,25.857 31.224,27.634 22.517,27.634 22.517,16.489 		"/>
	</g>
	<g>
		<path fill="#FFFBFF" d="M3.319,9.825v2.74H1.687V5.123c1.088-0.038,1.724-0.056,1.908-0.056c1.452,0,2.513,0.181,3.185,0.542
			c0.671,0.361,1.007,0.924,1.007,1.69c0,1.708-1.243,2.563-3.728,2.563C3.875,9.861,3.628,9.849,3.319,9.825z M3.319,6.267V8.65
			c0.276,0.024,0.494,0.036,0.653,0.036c0.745,0,1.289-0.101,1.632-0.302C5.946,8.182,6.118,7.854,6.118,7.4
			c0-0.773-0.768-1.159-2.304-1.159C3.643,6.241,3.478,6.25,3.319,6.267z"/>
		<path fill="#FFFBFF" d="M8.466,9.83c0-0.83,0.296-1.506,0.888-2.028c0.592-0.521,1.374-0.783,2.344-0.783
			c1.021,0,1.814,0.251,2.379,0.752c0.564,0.502,0.847,1.188,0.847,2.059c0,0.868-0.288,1.558-0.863,2.069
			c-0.575,0.512-1.363,0.768-2.363,0.768c-1.021,0-1.815-0.258-2.382-0.775C8.75,11.375,8.466,10.688,8.466,9.83z M10.098,9.83
			c0,1.2,0.534,1.8,1.601,1.8c0.49,0,0.877-0.156,1.164-0.467c0.287-0.312,0.43-0.756,0.43-1.333c0-1.183-0.531-1.774-1.594-1.774
			c-0.49,0-0.878,0.156-1.167,0.468C10.242,8.836,10.098,9.271,10.098,9.83z"/>
		<path fill="#FFFBFF" d="M22.705,12.667h-0.571l-1.845-3.345l-1.839,3.345h-0.577L15.336,7.12h1.651l1.349,3.249l1.645-3.249h0.565
			l1.701,3.27l1.456-3.27h1.544L22.705,12.667z"/>
		<path fill="#FFFBFF" d="M32.124,10.232h-4.801c0.029,0.434,0.213,0.771,0.552,1.012c0.339,0.241,0.795,0.361,1.368,0.361
			c0.716,0,1.26-0.151,1.632-0.453l0.609,0.971c-0.552,0.363-1.376,0.544-2.473,0.544c-1.025,0-1.836-0.243-2.432-0.729
			c-0.596-0.486-0.895-1.165-0.895-2.036c0-0.857,0.328-1.552,0.982-2.084c0.655-0.532,1.44-0.798,2.357-0.798
			c0.975,0,1.757,0.236,2.347,0.707c0.59,0.471,0.885,1.071,0.885,1.8C32.256,9.681,32.212,9.917,32.124,10.232z M27.379,9.276
			h3.301c-0.109-0.796-0.653-1.195-1.632-1.195C28.153,8.082,27.597,8.48,27.379,9.276z"/>
		<path fill="#FFFBFF" d="M37.396,8.305c-0.28-0.149-0.588-0.224-0.923-0.224c-0.364,0-0.688,0.134-0.97,0.401
			c-0.282,0.268-0.424,0.595-0.424,0.981v3.101h-1.568V7.12h1.568v0.499c0.439-0.4,1.023-0.6,1.751-0.6
			c0.536,0,0.946,0.066,1.23,0.199L37.396,8.305z"/>
		<path fill="#FFFBFF" d="M44.952,10.232H40.15c0.029,0.434,0.214,0.771,0.553,1.012c0.339,0.241,0.795,0.361,1.367,0.361
			c0.716,0,1.26-0.151,1.633-0.453l0.607,0.971c-0.552,0.363-1.377,0.544-2.473,0.544c-1.025,0-1.836-0.243-2.432-0.729
			c-0.597-0.486-0.895-1.165-0.895-2.036c0-0.857,0.327-1.552,0.982-2.084c0.654-0.532,1.438-0.798,2.356-0.798
			c0.975,0,1.756,0.236,2.346,0.707c0.592,0.471,0.887,1.071,0.887,1.8C45.084,9.681,45.04,9.917,44.952,10.232z M40.207,9.276
			h3.301C43.4,8.48,42.855,8.081,41.876,8.081C40.98,8.082,40.425,8.48,40.207,9.276z"/>
		<path fill="#FFFBFF" d="M50.663,12.565v-0.33c-0.13,0.115-0.351,0.216-0.659,0.302s-0.63,0.129-0.96,0.129
			c-0.938,0-1.675-0.241-2.213-0.722c-0.537-0.481-0.808-1.153-0.808-2.013c0-0.861,0.31-1.562,0.927-2.103
			c0.616-0.54,1.391-0.811,2.319-0.811c0.51,0,0.975,0.085,1.394,0.254V5.092l1.567-0.305v7.778H50.663z M50.663,8.422
			c-0.335-0.217-0.685-0.325-1.05-0.325c-0.627,0-1.109,0.155-1.448,0.465s-0.509,0.754-0.509,1.334
			c0,1.132,0.674,1.698,2.021,1.698c0.15,0,0.335-0.036,0.556-0.109c0.22-0.073,0.363-0.147,0.431-0.221V8.422z"/>
		<path fill="#FFFBFF" d="M58.072,12.375l-0.225,0.256h-0.563V7.81l0.999-0.194v1.618c0.266-0.131,0.557-0.197,0.87-0.197
			c0.625,0,1.131,0.16,1.514,0.481c0.384,0.32,0.575,0.73,0.575,1.23c0,0.581-0.192,1.039-0.579,1.377
			c-0.387,0.337-0.909,0.506-1.568,0.506C58.698,12.63,58.357,12.545,58.072,12.375z M58.284,9.925v1.809
			c0.146,0.141,0.345,0.21,0.595,0.21c0.482,0,0.823-0.093,1.023-0.278c0.201-0.185,0.303-0.482,0.303-0.89
			c0-0.703-0.415-1.055-1.246-1.055C58.663,9.722,58.438,9.79,58.284,9.925z"/>
		<path fill="#FFFBFF" d="M63.941,13.122c-0.106,0.231-0.336,0.422-0.687,0.574c-0.351,0.152-0.758,0.228-1.224,0.228v-0.715
			c0.77,0,1.154-0.156,1.154-0.469c0-0.207-0.106-0.524-0.319-0.951l-1.339-2.688h1.035l1.166,2.394l1.051-2.394h1.033
			L63.941,13.122z"/>
	</g>
</g>
</svg>
