<?xml version="1.0" encoding="utf-8"?>
<!-- Generator: Adobe Illustrator 15.0.2, SVG Export Plug-In . SVG Version: 6.00 Build 0)  -->
<!DOCTYPE svg PUBLIC "-//W3C//DTD SVG 1.1//EN" "http://www.w3.org/Graphics/SVG/1.1/DTD/svg11.dtd">
<svg version="1.1" id="Calque_1" xmlns="http://www.w3.org/2000/svg" xmlns:xlink="http://www.w3.org/1999/xlink" x="0px" y="0px"
	 width="27.221px" height="18.047px" viewBox="0 0 27.221 18.047" enable-background="new 0 0 27.221 18.047" xml:space="preserve">
<g id="Calque_1_1_">
</g>
<g opacity="0.04">
	<g>
		<polygon fill="#2D2D2D" points="22.682,20.999 18.145,16.462 13.61,20.999 9.073,16.462 4.537,20.999 0,16.462 -4.183,20.646 
			-4.89,19.938 0,15.048 4.537,19.585 9.073,15.048 13.61,19.585 18.145,15.048 22.682,19.585 27.219,15.048 32.11,19.938 
			31.403,20.646 27.219,16.462 		"/>
	</g>
	<g>
		<polygon fill="#2D2D2D" points="22.682,14.999 18.145,10.462 13.61,14.999 9.073,10.462 4.537,14.999 0,10.462 -4.183,14.646 
			-4.89,13.938 0,9.048 4.537,13.585 9.073,9.048 13.61,13.585 18.145,9.048 22.682,13.585 27.219,9.048 32.11,13.938 
			31.403,14.646 27.219,10.462 		"/>
	</g>
	<g>
		<polygon fill="#2D2D2D" points="22.682,8.999 18.145,4.462 13.61,8.999 9.073,4.462 4.537,8.999 0,4.462 -4.183,8.646 
			-4.89,7.938 0,3.048 4.537,7.585 9.073,3.048 13.61,7.585 18.145,3.048 22.682,7.585 27.219,3.048 32.11,7.938 31.403,8.646 
			27.219,4.462 		"/>
	</g>
	<g>
		<polygon fill="#2D2D2D" points="22.682,2.999 18.145,-1.538 13.61,2.999 9.073,-1.538 4.537,2.999 0,-1.538 -4.183,2.646 
			-4.89,1.938 0,-2.952 4.537,1.585 9.073,-2.952 13.61,1.585 18.145,-2.952 22.682,1.585 27.219,-2.952 32.11,1.938 31.403,2.646 
			27.219,-1.538 		"/>
	</g>
</g>
<g display="none">
	<polyline display="inline" fill="none" stroke="#42608C" stroke-miterlimit="10" points="450.756,551.547 446.219,547.01 
		441.682,551.547 437.145,547.01 432.613,551.547 428.073,547.01 423.537,551.547 419,547.01 414.463,551.547 	"/>
	<polyline display="inline" fill="none" stroke="#42608C" stroke-miterlimit="10" points="450.756,545.547 446.219,541.01 
		441.682,545.547 437.145,541.01 432.613,545.547 428.073,541.01 423.537,545.547 419,541.01 414.463,545.547 	"/>
	<polyline display="inline" fill="none" stroke="#42608C" stroke-miterlimit="10" points="450.756,539.547 446.219,535.01 
		441.682,539.547 437.145,535.01 432.613,539.547 428.073,535.01 423.537,539.547 419,535.01 414.463,539.547 	"/>
	<polyline display="inline" fill="none" stroke="#42608C" stroke-miterlimit="10" points="450.756,533.547 446.219,529.01 
		441.682,533.547 437.145,529.01 432.613,533.547 428.073,529.01 423.537,533.547 419,529.01 414.463,533.547 	"/>
</g>
</svg>
