<?xml version="1.0" encoding="utf-8"?>
<!-- Generator: Adobe Illustrator 15.0.2, SVG Export Plug-In . SVG Version: 6.00 Build 0)  -->
<!DOCTYPE svg PUBLIC "-//W3C//DTD SVG 1.1//EN" "http://www.w3.org/Graphics/SVG/1.1/DTD/svg11.dtd">
<svg version="1.1" id="Calque_1" xmlns="http://www.w3.org/2000/svg" xmlns:xlink="http://www.w3.org/1999/xlink" x="0px" y="0px"
	 width="320px" height="36px" viewBox="0 0 320 36" enable-background="new 0 0 320 36" xml:space="preserve">
<g id="Effet_NoPatch">
</g>
<g>
	<path opacity="0.25" fill="#2AEDFF" enable-background="new    " d="M78,34c0,1.1-0.9,2-2,2H2c-1.1,0-2-0.9-2-2V3c0-1.1,0.9-2,2-2
		h74c1.1,0,2,0.9,2,2V34z"/>
	<path fill="#2AEDFF" d="M78,33c0,1.1-0.9,2-2,2H2c-1.1,0-2-0.9-2-2V2c0-1.1,0.9-2,2-2h74c1.1,0,2,0.9,2,2V33z"/>
	<rect x="1" y="1" fill="#D3117E" width="76" height="33"/>
</g>
<g>
	<path opacity="0.25" fill="#2AEDFF" enable-background="new    " d="M318,34c0,1.1-0.9,2-2,2h-74c-1.1,0-2-0.9-2-2V3
		c0-1.1,0.9-2,2-2h74c1.1,0,2,0.9,2,2V34z"/>
	<path fill="#2AEDFF" d="M318,33c0,1.1-0.9,2-2,2h-74c-1.1,0-2-0.9-2-2V2c0-1.1,0.9-2,2-2h74c1.1,0,2,0.9,2,2V33z"/>
	<rect x="241" y="1" fill="#D3117E" width="76" height="33"/>
</g>
<g>
	<path fill="#1DA9B6" d="M158,34c0,1.1-0.9,2-2,2H82c-1.1,0-2-0.9-2-2V3c0-1.1,0.9-2,2-2h74c1.1,0,2,0.9,2,2V34z"/>
	<path fill="#1DA9B6" d="M158,33c0,1.1-0.9,2-2,2H82c-1.1,0-2-0.9-2-2V2c0-1.1,0.9-2,2-2h74c1.1,0,2,0.9,2,2V33z"/>
	<rect x="81" y="1" fill="#D3117E" width="76" height="33"/>
</g>
<g>
	<path fill="#1DA9B6" d="M238,34c0,1.1-0.9,2-2,2h-74c-1.1,0-2-0.9-2-2V3c0-1.1,0.9-2,2-2h74c1.1,0,2,0.9,2,2V34z"/>
	<path fill="#1DA9B6" d="M238,33c0,1.1-0.9,2-2,2h-74c-1.1,0-2-0.9-2-2V2c0-1.1,0.9-2,2-2h74c1.1,0,2,0.9,2,2V33z"/>
	<rect x="161" y="1" fill="#D3117E" width="76" height="33"/>
</g>
</svg>
