<?xml version="1.0" encoding="utf-8"?>
<!-- Generator: Adobe Illustrator 15.0.2, SVG Export Plug-In . SVG Version: 6.00 Build 0)  -->
<!DOCTYPE svg PUBLIC "-//W3C//DTD SVG 1.1//EN" "http://www.w3.org/Graphics/SVG/1.1/DTD/svg11.dtd">
<svg version="1.1" id="Calque_1" xmlns="http://www.w3.org/2000/svg" xmlns:xlink="http://www.w3.org/1999/xlink" x="0px" y="0px"
	 width="320px" height="24px" viewBox="0 0 320 24" enable-background="new 0 0 320 24" xml:space="preserve">
<g id="Effet_NoPatch" display="none">
</g>
<g>
	<path fill="#2AEDFF" d="M78,21c0,1.1-0.898,2-2,2H4c-1.1,0-2-0.9-2-2V4c0-1.1,0.9-2,2-2h72c1.102,0,2,0.9,2,2V21z"/>
	<path fill="#EEEBE8" d="M78,20c0,1.1-0.898,2-2,2H4c-1.1,0-2-0.9-2-2V3c0-1.1,0.9-2,2-2h72c1.102,0,2,0.9,2,2V20z"/>
</g>
<g>
	<path fill="#2AEDFF" d="M318,21c0,1.1-0.898,2-2,2h-72c-1.1,0-2-0.9-2-2V4c0-1.1,0.9-2,2-2h72c1.102,0,2,0.9,2,2V21z"/>
	<path fill="#EEEBE8" d="M318,20c0,1.1-0.898,2-2,2h-72c-1.1,0-2-0.9-2-2V3c0-1.1,0.9-2,2-2h72c1.102,0,2,0.9,2,2V20z"/>
</g>
<g>
	<path fill="#24CFDE" d="M158,21c0,1.1-0.9,2-2,2H84c-1.1,0-2-0.9-2-2V4c0-1.1,0.9-2,2-2h72c1.1,0,2,0.9,2,2V21z"/>
	<path fill="#E8C6B0" d="M158,19c0,1.1-0.9,2-2,2H84c-1.101,0-2-0.9-2-2V3c0-1.1,0.899-2,2-2h72c1.1,0,2,0.9,2,2V19z"/>
</g>
<g>
	<path fill="#24CFDE" d="M238,21c0,1.1-0.9,2-2,2h-72c-1.1,0-2-0.9-2-2V4c0-1.1,0.9-2,2-2h72c1.1,0,2,0.9,2,2V21z"/>
	<path fill="#E8C6B0" d="M238,19c0,1.1-0.9,2-2,2h-72c-1.102,0-2-0.9-2-2V3c0-1.1,0.898-2,2-2h72c1.1,0,2,0.9,2,2V19z"/>
</g>
</svg>
