<?xml version="1.0" encoding="utf-8"?>
<!-- Generator: Adobe Illustrator 15.0.2, SVG Export Plug-In . SVG Version: 6.00 Build 0)  -->
<!DOCTYPE svg PUBLIC "-//W3C//DTD SVG 1.1//EN" "http://www.w3.org/Graphics/SVG/1.1/DTD/svg11.dtd">
<svg version="1.1" id="Calque_1" xmlns="http://www.w3.org/2000/svg" xmlns:xlink="http://www.w3.org/1999/xlink" x="0px" y="0px"
	 width="22px" height="22px" viewBox="0 0 22 22" enable-background="new 0 0 22 22" xml:space="preserve">
<g>
	<path opacity="0.25" fill="#C0C0C0" enable-background="new    " d="M22,20c0,1.1-0.9,2-2,2H2c-1.101,0-2-0.9-2-2V3
		C0,1.9,0.9,1,2,1h18c1.1,0,2,0.9,2,2V20z"/>
	<path fill="#C0C0C0" d="M22,19c0,1.1-0.9,2-2,2H2c-1.101,0-2-0.9-2-2V2C0,0.9,0.9,0,2,0h18c1.1,0,2,0.9,2,2V19z"/>
	<rect x="1" y="1" fill="#EEEBE8" width="20" height="19"/>
</g>
</svg>
